<?xml version="1.0" encoding="utf-8"?>
<!DOCTYPE score-partwise  PUBLIC "-//Recordare//DTD MusicXML 3.1 Partwise//EN" "http://www.musicxml.org/dtds/partwise.dtd">
<score-partwise version="3.1">
  <work>
    <work-title> </work-title>
  </work>
  <movement-title> </movement-title>
  <identification>
    <creator type="composer"> </creator>
    <encoding>
      <encoding-date>2024-07-29</encoding-date>
      <software>music21 v.8.3.0</software>
    </encoding>
  </identification>
  <defaults>
    <scaling>
      <millimeters>7</millimeters>
      <tenths>40</tenths>
    </scaling>
  </defaults>
  <part-list>
    <score-part id="P5f6f51c85a8ba17a273a8e584add2323">
      <part-name />
    </score-part>
  </part-list>
  <!--=========================== Part 1 ===========================-->
  <part id="P5f6f51c85a8ba17a273a8e584add2323">
    <!--========================= Measure 0 ==========================-->
    <measure number="0">
      <attributes>
        <divisions>10080</divisions>
        <time>
          <beats>4</beats>
          <beat-type>4</beat-type>
        </time>
      </attributes>
      <note print-object="no" print-spacing="yes">
        <rest measure="yes" />
        <duration>40320</duration>
      </note>
    </measure>
    <!--========================= Measure 0 ==========================-->
    <measure number="0">
      <note color="#FF0000" default-x="114.34" default-y="-45">
        <pitch>
          <step>D</step>
          <alter>1</alter>
          <octave>3</octave>
        </pitch>
        <duration>10080</duration>
        <type>quarter</type>
        <accidental>sharp</accidental>
        <stem>up</stem>
        <notehead color="#FF0000" parentheses="no">normal</notehead>
        <lyric default-x="6.5" default-y="-48.86" name="1" number="1" relative-y="-30">
          <syllabic>single</syllabic>
          <text>way</text>
        </lyric>
        <lyric default-x="6.5" default-y="-75.2" name="2" number="2" relative-y="-30">
          <syllabic>single</syllabic>
          <text>what</text>
        </lyric>
        <lyric default-x="6.5" default-y="-101.55" name="3" number="3" relative-y="-30">
          <syllabic>single</syllabic>
          <text>a</text>
        </lyric>
      </note>
      <note default-x="317.95" default-y="-45">
        <pitch>
          <step>D</step>
          <alter>1</alter>
          <octave>3</octave>
        </pitch>
        <duration>10080</duration>
        <type>quarter</type>
        <stem>up</stem>
        <lyric default-x="6.5" default-y="-48.86" name="1" number="1" relative-y="-30">
          <syllabic>single</syllabic>
          <text>up</text>
        </lyric>
        <lyric default-x="6.5" default-y="-75.2" name="2" number="2" relative-y="-30">
          <syllabic>single</syllabic>
          <text>you</text>
        </lyric>
        <lyric default-x="6.5" default-y="-101.55" name="3" number="3" relative-y="-30">
          <syllabic>begin</syllabic>
          <text>spec</text>
        </lyric>
      </note>
      <note color="#FF0000" default-x="521.57" default-y="-45">
        <pitch>
          <step>D</step>
          <alter>1</alter>
          <octave>3</octave>
        </pitch>
        <duration>5040</duration>
        <type>eighth</type>
        <stem>up</stem>
        <notehead color="#FF0000" parentheses="no">normal</notehead>
        <beam number="1">begin</beam>
        <lyric default-x="6.5" default-y="-48.86" name="1" number="1" relative-y="-30">
          <syllabic>single</syllabic>
          <text>here</text>
        </lyric>
        <lyric default-x="6.5" default-y="-75.2" name="2" number="2" relative-y="-30">
          <syllabic>single</syllabic>
          <text>feel</text>
        </lyric>
        <lyric default-x="6.5" default-y="-101.55" name="3" number="3" relative-y="-30">
          <syllabic>middle</syllabic>
          <text>tac</text>
        </lyric>
      </note>
      <note default-x="648.83" default-y="-40">
        <pitch>
          <step>E</step>
          <octave>3</octave>
        </pitch>
        <duration>5040</duration>
        <type>eighth</type>
        <stem>up</stem>
        <beam number="1">end</beam>
        <lyric default-x="6.5" default-y="-48.86" name="1" number="1" relative-y="-30">
          <syllabic>single</syllabic>
          <text>in</text>
        </lyric>
        <lyric default-x="6.5" default-y="-75.2" name="2" number="2" relative-y="-30">
          <syllabic>single</syllabic>
          <text>will</text>
        </lyric>
        <lyric default-x="6.5" default-y="-101.55" name="3" number="3" relative-y="-30">
          <syllabic>middle</syllabic>
          <text>ul</text>
        </lyric>
      </note>
      <note default-x="776.09" default-y="-35">
        <pitch>
          <step>F</step>
          <alter>1</alter>
          <octave>3</octave>
        </pitch>
        <duration>10080</duration>
        <type>quarter</type>
        <stem>up</stem>
        <lyric default-x="6.5" default-y="-48.86" name="1" number="1" relative-y="-30">
          <syllabic>single</syllabic>
          <text>the</text>
        </lyric>
        <lyric default-x="6.5" default-y="-75.2" name="2" number="2" relative-y="-30">
          <syllabic>begin</syllabic>
          <text>de</text>
        </lyric>
        <lyric default-x="6.5" default-y="-101.55" name="3" number="3" relative-y="-30">
          <syllabic>end</syllabic>
          <text>ar</text>
        </lyric>
      </note>
    </measure>
    <!--========================= Measure 0 ==========================-->
    <measure number="0">
      <note color="#FF0000" default-x="102.08" default-y="-40">
        <pitch>
          <step>E</step>
          <octave>3</octave>
        </pitch>
        <duration>10080</duration>
        <type>quarter</type>
        <stem>up</stem>
        <notehead color="#FF0000" parentheses="no">normal</notehead>
        <lyric default-x="6.5" default-y="-56.12" name="1" number="1" relative-y="-30">
          <syllabic>begin</syllabic>
          <text>Rock</text>
        </lyric>
        <lyric default-x="6.5" default-y="-82.47" name="2" number="2" relative-y="-30">
          <syllabic>end</syllabic>
          <text>fy</text>
        </lyric>
        <lyric default-x="6.5" default-y="-108.81" name="3" number="3" relative-y="-30">
          <syllabic>single</syllabic>
          <text>new</text>
        </lyric>
      </note>
      <note default-x="168.22" default-y="-45">
        <pitch>
          <step>D</step>
          <octave>3</octave>
        </pitch>
        <duration>10080</duration>
        <type>quarter</type>
        <stem>up</stem>
        <lyric default-x="6.5" default-y="-56.12" name="1" number="1" relative-y="-30">
          <syllabic>end</syllabic>
          <text>y</text>
        </lyric>
        <lyric default-x="6.5" default-y="-82.47" name="2" number="2" relative-y="-30">
          <syllabic>begin</syllabic>
          <text>de</text>
        </lyric>
        <lyric default-x="6.5" default-y="-108.81" name="3" number="3" relative-y="-30">
          <syllabic>begin</syllabic>
          <text>sen</text>
        </lyric>
      </note>
      <note color="#FF0000" default-x="234.36" default-y="-50">
        <pitch>
          <step>C</step>
          <alter>1</alter>
          <octave>3</octave>
        </pitch>
        <duration>10080</duration>
        <type>quarter</type>
        <stem>up</stem>
        <notehead color="#FF0000" parentheses="no">normal</notehead>
        <lyric default-x="6.5" default-y="-56.12" name="1" number="1" relative-y="-30">
          <syllabic>begin</syllabic>
          <text>Mount</text>
        </lyric>
        <lyric default-x="6.5" default-y="-82.47" name="2" number="2" relative-y="-30">
          <syllabic>middle</syllabic>
          <text>scrip</text>
        </lyric>
        <lyric default-x="6.5" default-y="-108.81" name="3" number="3" relative-y="-30">
          <syllabic>middle</syllabic>
          <text>sa</text>
        </lyric>
      </note>
      <note default-x="300.5" default-y="-55">
        <pitch>
          <step>B</step>
          <octave>2</octave>
        </pitch>
        <duration>10080</duration>
        <type>quarter</type>
        <stem>up</stem>
        <lyric default-x="6.5" default-y="-56.12" name="1" number="1" relative-y="-30">
          <syllabic>end</syllabic>
          <text>ains</text>
        </lyric>
        <lyric default-x="6.5" default-y="-82.47" name="2" number="2" relative-y="-30">
          <syllabic>end</syllabic>
          <text>tion</text>
        </lyric>
        <lyric default-x="6.5" default-y="-108.81" name="3" number="3" relative-y="-30">
          <syllabic>end</syllabic>
          <text>tion</text>
        </lyric>
      </note>
    </measure>
    <!--========================= Measure 0 ==========================-->
    <measure number="0">
      <note>
        <rest measure="yes" />
        <duration>40320</duration>
      </note>
    </measure>
    <!--========================= Measure 0 ==========================-->
    <measure number="0">
      <note>
        <rest measure="yes" />
        <duration>40320</duration>
      </note>
    </measure>
    <!--========================= Measure 0 ==========================-->
    <measure number="0">
      <note>
        <rest measure="yes" />
        <duration>40320</duration>
      </note>
    </measure>
    <!--========================= Measure 0 ==========================-->
    <measure number="0">
      <note>
        <rest measure="yes" />
        <duration>40320</duration>
      </note>
    </measure>
    <!--========================= Measure 0 ==========================-->
    <measure number="0">
      <note color="#FF0000" default-x="47.98" default-y="-15">
        <pitch>
          <step>C</step>
          <alter>1</alter>
          <octave>4</octave>
        </pitch>
        <duration>30240</duration>
        <type>half</type>
        <dot />
        <stem>down</stem>
        <notehead color="#FF0000" parentheses="no">normal</notehead>
        <lyric default-x="6.5" default-y="-56.12" name="1" number="1" relative-y="-30">
          <syllabic>single</syllabic>
          <text>Clear</text>
        </lyric>
        <lyric default-x="6.5" default-y="-82.47" name="2" number="2" relative-y="-30">
          <syllabic>single</syllabic>
          <text>Breathe</text>
        </lyric>
        <lyric default-x="6.5" default-y="-108.81" name="3" number="3" relative-y="-30">
          <syllabic>single</syllabic>
          <text>Free</text>
        </lyric>
      </note>
      <note default-x="147.18" default-y="-20">
        <pitch>
          <step>B</step>
          <octave>3</octave>
        </pitch>
        <duration>5040</duration>
        <type>eighth</type>
        <stem>down</stem>
        <beam number="1">begin</beam>
        <lyric default-x="6.5" default-y="-56.12" name="1" number="1" relative-y="-30">
          <syllabic>single</syllabic>
          <text>as</text>
        </lyric>
        <lyric default-x="6.5" default-y="-82.47" name="2" number="2" relative-y="-30">
          <syllabic>single</syllabic>
          <text>in</text>
        </lyric>
        <lyric default-x="6.5" default-y="-108.81" name="3" number="3" relative-y="-30">
          <syllabic>single</syllabic>
          <text>as</text>
        </lyric>
      </note>
      <note default-x="177.87" default-y="-15">
        <pitch>
          <step>C</step>
          <alter>1</alter>
          <octave>4</octave>
        </pitch>
        <duration>5040</duration>
        <type>eighth</type>
        <stem>down</stem>
        <beam number="1">end</beam>
        <lyric default-x="6.5" default-y="-56.12" name="1" number="1" relative-y="-30">
          <syllabic>single</syllabic>
          <text>a</text>
        </lyric>
        <lyric default-x="6.5" default-y="-82.47" name="2" number="2" relative-y="-30">
          <syllabic>single</syllabic>
          <text>the</text>
        </lyric>
        <lyric default-x="6.5" default-y="-108.81" name="3" number="3" relative-y="-30">
          <syllabic>single</syllabic>
          <text>a</text>
        </lyric>
      </note>
    </measure>
    <!--========================= Measure 0 ==========================-->
    <measure number="0">
      <note color="#FF0000" default-x="102.08" default-y="-20">
        <pitch>
          <step>B</step>
          <octave>3</octave>
        </pitch>
        <duration>5040</duration>
        <type>eighth</type>
        <stem>down</stem>
        <notehead color="#FF0000" parentheses="no">normal</notehead>
        <lyric default-x="6.5" default-y="-50.16" name="1" number="1" relative-y="-30">
          <syllabic>begin</syllabic>
          <text>mount</text>
        </lyric>
        <lyric default-x="6.5" default-y="-76.5" name="2" number="2" relative-y="-30">
          <syllabic>begin</syllabic>
          <text>at</text>
        </lyric>
        <lyric default-x="6.5" default-y="-102.85" name="3" number="3" relative-y="-30">
          <syllabic>single</syllabic>
          <text>bird</text>
        </lyric>
      </note>
      <note color="#FF0000" default-x="161.71" default-y="-25">
        <pitch>
          <step>A</step>
          <octave>3</octave>
        </pitch>
        <duration>10080</duration>
        <type>quarter</type>
        <stem>up</stem>
        <notehead color="#FF0000" parentheses="no">normal</notehead>
        <lyric default-x="6.5" default-y="-50.16" name="1" number="1" relative-y="-30">
          <syllabic>end</syllabic>
          <text>ain</text>
        </lyric>
        <lyric default-x="6.5" default-y="-76.5" name="2" number="2" relative-y="-30">
          <syllabic>middle</syllabic>
          <text>mos</text>
        </lyric>
        <lyric default-x="6.5" default-y="-102.85" name="3" number="3" relative-y="-30">
          <syllabic>single</syllabic>
          <text>in</text>
        </lyric>
      </note>
      <note color="#FF0000" default-x="280.98" default-y="-25">
        <pitch>
          <step>A</step>
          <octave>3</octave>
        </pitch>
        <duration>15120</duration>
        <type>quarter</type>
        <dot />
        <stem>up</stem>
        <notehead color="#FF0000" parentheses="no">normal</notehead>
        <lyric default-x="6.5" default-y="-50.16" name="1" number="1" relative-y="-30">
          <syllabic>single</syllabic>
          <text>stream</text>
        </lyric>
        <lyric default-x="6.5" default-y="-76.5" name="2" number="2" relative-y="-30">
          <syllabic>end</syllabic>
          <text>phere</text>
        </lyric>
        <lyric default-x="6.5" default-y="-102.85" name="3" number="3" relative-y="-30">
          <syllabic>single</syllabic>
          <text>flight</text>
        </lyric>
      </note>
      <note default-x="436.03" default-y="-20">
        <pitch>
          <step>B</step>
          <octave>3</octave>
        </pitch>
        <duration>5040</duration>
        <type>eighth</type>
        <stem>down</stem>
        <beam number="1">begin</beam>
        <lyric default-x="6.5" default-y="-50.16" name="1" number="1" relative-y="-30">
          <syllabic>single</syllabic>
          <text>through</text>
        </lyric>
        <lyric default-x="6.5" default-y="-76.5" name="2" number="2" relative-y="-30">
          <syllabic>begin</syllabic>
          <text>wor</text>
        </lyric>
        <lyric default-x="6.5" default-y="-102.85" name="3" number="3" relative-y="-30">
          <syllabic>single</syllabic>
          <text>cross</text>
        </lyric>
      </note>
      <note default-x="499.1" default-y="-15">
        <pitch>
          <step>C</step>
          <alter>1</alter>
          <octave>4</octave>
        </pitch>
        <duration>5040</duration>
        <type>eighth</type>
        <stem>down</stem>
        <beam number="1">end</beam>
        <lyric default-x="6.5" default-y="-50.16" name="1" number="1" relative-y="-30">
          <syllabic>single</syllabic>
          <text>the</text>
        </lyric>
        <lyric default-x="6.5" default-y="-76.5" name="2" number="2" relative-y="-30">
          <syllabic>end</syllabic>
          <text>ries</text>
        </lyric>
        <lyric default-x="6.5" default-y="-102.85" name="3" number="3" relative-y="-30">
          <syllabic>single</syllabic>
          <text>the</text>
        </lyric>
      </note>
    </measure>
    <!--========================= Measure 0 ==========================-->
    <measure number="0">
      <note color="#FF0000" default-x="34.8" default-y="-20">
        <pitch>
          <step>B</step>
          <octave>3</octave>
        </pitch>
        <duration>5040</duration>
        <type>eighth</type>
        <stem>down</stem>
        <notehead color="#FF0000" parentheses="no">normal</notehead>
        <lyric default-x="6.5" default-y="-50.16" name="1" number="1" relative-y="-30">
          <syllabic>begin</syllabic>
          <text>ev</text>
        </lyric>
        <lyric default-x="6.5" default-y="-76.5" name="2" number="2" relative-y="-30">
          <syllabic>begin</syllabic>
          <text>dis</text>
        </lyric>
        <lyric default-x="6.5" default-y="-102.85" name="3" number="3" relative-y="-30">
          <syllabic>single</syllabic>
          <text>moon</text>
        </lyric>
      </note>
      <note color="#FF0000" default-x="85.3" default-y="-25">
        <pitch>
          <step>A</step>
          <octave>3</octave>
        </pitch>
        <duration>10080</duration>
        <type>quarter</type>
        <stem>up</stem>
        <notehead color="#FF0000" parentheses="no">normal</notehead>
        <lyric default-x="6.5" default-y="-50.16" name="1" number="1" relative-y="-30">
          <syllabic>middle</syllabic>
          <text>er</text>
        </lyric>
        <lyric default-x="6.5" default-y="-76.5" name="2" number="2" relative-y="-30">
          <syllabic>middle</syllabic>
          <text>a</text>
        </lyric>
        <lyric default-x="6.5" default-y="-102.85" name="3" number="3" relative-y="-30">
          <syllabic>single</syllabic>
          <text>at</text>
        </lyric>
      </note>
      <note color="#FF0000" default-x="186.31" default-y="-25">
        <pitch>
          <step>A</step>
          <octave>3</octave>
        </pitch>
        <duration>15120</duration>
        <type>quarter</type>
        <dot />
        <stem>up</stem>
        <notehead color="#FF0000" parentheses="no">normal</notehead>
        <lyric default-x="8.94" default-y="-50.16" name="1" number="1" relative-y="-30">
          <syllabic>end</syllabic>
          <text>green,</text>
        </lyric>
        <lyric default-x="6.5" default-y="-76.5" name="2" number="2" relative-y="-30">
          <syllabic>end</syllabic>
          <text>pear</text>
        </lyric>
        <lyric default-x="6.5" default-y="-102.85" name="3" number="3" relative-y="-30">
          <syllabic>single</syllabic>
          <text>night</text>
        </lyric>
      </note>
      <note default-x="317.62" default-y="-40">
        <pitch>
          <step>E</step>
          <octave>3</octave>
        </pitch>
        <duration>5040</duration>
        <type>eighth</type>
        <stem>up</stem>
        <beam number="1">begin</beam>
        <lyric default-x="6.5" default-y="-50.16" name="1" number="1" relative-y="-30">
          <syllabic>single</syllabic>
          <text>where</text>
        </lyric>
        <lyric default-x="6.5" default-y="-76.5" name="2" number="2" relative-y="-30">
          <syllabic>single</syllabic>
          <text>there</text>
        </lyric>
        <lyric default-x="6.5" default-y="-102.85" name="3" number="3" relative-y="-30">
          <syllabic>single</syllabic>
          <text>with</text>
        </lyric>
      </note>
      <note default-x="368.66" default-y="-35">
        <pitch>
          <step>F</step>
          <alter>1</alter>
          <octave>3</octave>
        </pitch>
        <duration>5040</duration>
        <type>eighth</type>
        <stem>up</stem>
        <beam number="1">end</beam>
        <lyric default-x="6.5" default-y="-50.16" name="1" number="1" relative-y="-30">
          <syllabic>single</syllabic>
          <text>the</text>
        </lyric>
        <lyric default-x="6.5" default-y="-76.5" name="2" number="2" relative-y="-30">
          <syllabic>single</syllabic>
          <text>the</text>
        </lyric>
        <lyric default-x="6.5" default-y="-102.85" name="3" number="3" relative-y="-30">
          <syllabic>single</syllabic>
          <text>the</text>
        </lyric>
      </note>
    </measure>
    <!--========================= Measure 0 ==========================-->
    <measure number="0">
      <note color="#FF0000" default-x="104.62" default-y="-40">
        <pitch>
          <step>E</step>
          <octave>3</octave>
        </pitch>
        <duration>5040</duration>
        <type>eighth</type>
        <stem>up</stem>
        <notehead color="#FF0000" parentheses="no">normal</notehead>
        <lyric default-x="6.5" default-y="-54.28" name="1" number="1" relative-y="-30">
          <syllabic>single</syllabic>
          <text>air</text>
        </lyric>
        <lyric default-x="6.5" default-y="-80.62" name="2" number="2" relative-y="-30">
          <syllabic>single</syllabic>
          <text>air</text>
        </lyric>
        <lyric default-x="6.5" default-y="-106.96" name="3" number="3" relative-y="-30">
          <syllabic>single</syllabic>
          <text>stars</text>
        </lyric>
      </note>
      <note color="#FF0000" default-x="226.16" default-y="-45">
        <pitch>
          <step>D</step>
          <octave>3</octave>
        </pitch>
        <duration>10080</duration>
        <type>quarter</type>
        <stem>up</stem>
        <notehead color="#FF0000" parentheses="no">normal</notehead>
        <lyric default-x="6.5" default-y="-54.28" name="1" number="1" relative-y="-30">
          <syllabic>single</syllabic>
          <text>is</text>
        </lyric>
        <lyric default-x="6.5" default-y="-80.62" name="2" number="2" relative-y="-30">
          <syllabic>single</syllabic>
          <text>is</text>
        </lyric>
        <lyric default-x="6.5" default-y="-106.96" name="3" number="3" relative-y="-30">
          <syllabic>single</syllabic>
          <text>so</text>
        </lyric>
      </note>
      <note color="#FF0000" default-x="469.24" default-y="-45">
        <pitch>
          <step>D</step>
          <octave>3</octave>
        </pitch>
        <duration>15120</duration>
        <tie type="start" />
        <type>quarter</type>
        <dot />
        <stem>up</stem>
        <notehead color="#FF0000" parentheses="no">normal</notehead>
        <notations>
          <tied type="start" />
        </notations>
        <lyric default-x="9.5" default-y="-54.28" name="1" number="1" relative-y="-30">
          <syllabic>single</syllabic>
          <text>clean,</text>
        </lyric>
        <lyric default-x="6.5" default-y="-80.62" name="2" number="2" relative-y="-30">
          <syllabic>single</syllabic>
          <text>clear</text>
        </lyric>
        <lyric default-x="6.5" default-y="-106.96" name="3" number="3" relative-y="-30">
          <syllabic>single</syllabic>
          <text>bright</text>
        </lyric>
      </note>
      <note default-x="785.24" default-y="-45">
        <pitch>
          <step>D</step>
          <octave>3</octave>
        </pitch>
        <duration>10080</duration>
        <tie type="stop" />
        <type>quarter</type>
        <stem>up</stem>
        <notations>
          <tied type="stop" />
        </notations>
      </note>
    </measure>
  </part>
</score-partwise>