<?xml version="1.0" encoding="utf-8"?>
<!DOCTYPE score-partwise  PUBLIC "-//Recordare//DTD MusicXML 3.1 Partwise//EN" "http://www.musicxml.org/dtds/partwise.dtd">
<score-partwise version="3.1">
  <work>
    <work-title> </work-title>
  </work>
  <movement-title> </movement-title>
  <identification>
    <creator type="composer"> </creator>
    <encoding>
      <encoding-date>2024-07-29</encoding-date>
      <software>music21 v.8.3.0</software>
    </encoding>
  </identification>
  <defaults>
    <scaling>
      <millimeters>7</millimeters>
      <tenths>40</tenths>
    </scaling>
  </defaults>
  <part-list>
    <score-part id="P3b63cfdc263b8ada03930ac6b9b47ff1">
      <part-name />
    </score-part>
  </part-list>
  <!--=========================== Part 1 ===========================-->
  <part id="P3b63cfdc263b8ada03930ac6b9b47ff1">
    <!--========================= Measure 0 ==========================-->
    <measure number="0">
      <attributes>
        <divisions>10080</divisions>
        <time symbol="common">
          <beats>4</beats>
          <beat-type>4</beat-type>
        </time>
      </attributes>
      <note>
        <rest />
        <duration>10080</duration>
        <type>quarter</type>
      </note>
      <note print-object="no" print-spacing="yes">
        <rest />
        <duration>30240</duration>
        <type>half</type>
        <dot />
      </note>
    </measure>
    <!--========================= Measure 0 ==========================-->
    <measure number="0">
      <note>
        <rest measure="yes" />
        <duration>40320</duration>
      </note>
    </measure>
    <!--========================= Measure 0 ==========================-->
    <measure number="0">
      <note>
        <rest measure="yes" />
        <duration>40320</duration>
      </note>
    </measure>
    <!--========================= Measure 0 ==========================-->
    <measure number="0">
      <note>
        <rest />
        <duration>10080</duration>
        <type>quarter</type>
      </note>
      <note default-x="72.36" default-y="-10">
        <pitch>
          <step>D</step>
          <octave>5</octave>
        </pitch>
        <duration>10080</duration>
        <type>quarter</type>
        <stem>down</stem>
        <lyric default-x="6.5" default-y="-67.88" name="1" number="1" relative-y="-30">
          <syllabic>single</syllabic>
          <text>and</text>
        </lyric>
      </note>
      <note color="#FF0000" default-x="131.73" default-y="-10">
        <pitch>
          <step>D</step>
          <octave>5</octave>
        </pitch>
        <duration>10080</duration>
        <type>quarter</type>
        <stem>down</stem>
        <notehead color="#FF0000" parentheses="no">normal</notehead>
        <lyric default-x="6.5" default-y="-67.88" name="1" number="1" relative-y="-30">
          <syllabic>single</syllabic>
          <text>he</text>
        </lyric>
      </note>
      <note default-x="191.09" default-y="-10">
        <pitch>
          <step>D</step>
          <octave>5</octave>
        </pitch>
        <duration>10080</duration>
        <type>quarter</type>
        <stem>down</stem>
        <lyric default-x="6.5" default-y="-67.88" name="1" number="1" relative-y="-30">
          <syllabic>single</syllabic>
          <text>shall</text>
        </lyric>
      </note>
    </measure>
    <!--========================= Measure 0 ==========================-->
    <measure number="0">
      <note color="#FF0000" default-x="33.04" default-y="5">
        <pitch>
          <step>G</step>
          <octave>5</octave>
        </pitch>
        <duration>15120</duration>
        <type>quarter</type>
        <dot />
        <stem>down</stem>
        <notehead color="#FF0000" parentheses="no">normal</notehead>
        <lyric default-x="6.5" default-y="-67.88" name="1" number="1" relative-y="-30">
          <syllabic>single</syllabic>
          <text>smite</text>
        </lyric>
      </note>
      <note default-x="119.35" default-y="-30">
        <pitch>
          <step>G</step>
          <octave>4</octave>
        </pitch>
        <duration>5040</duration>
        <type>eighth</type>
        <stem>up</stem>
        <lyric default-x="6.5" default-y="-67.88" name="1" number="1" relative-y="-30">
          <syllabic>single</syllabic>
          <text>the</text>
        </lyric>
      </note>
      <note color="#FF0000" default-x="152.54" default-y="-20">
        <pitch>
          <step>B</step>
          <octave>4</octave>
        </pitch>
        <duration>20160</duration>
        <tie type="start" />
        <type>half</type>
        <stem>down</stem>
        <notehead color="#FF0000" parentheses="no">normal</notehead>
        <notations>
          <tied type="start" />
        </notations>
        <lyric default-y="-67.88" name="1" number="1" relative-y="-30">
          <syllabic>single</syllabic>
          <text>earth</text>
        </lyric>
      </note>
    </measure>
    <!--========================= Measure 0 ==========================-->
    <measure number="0">
      <note default-x="13" default-y="-20">
        <pitch>
          <step>B</step>
          <octave>4</octave>
        </pitch>
        <duration>10080</duration>
        <tie type="stop" />
        <type>quarter</type>
        <stem>down</stem>
        <notations>
          <tied type="stop" />
        </notations>
      </note>
      <note default-x="80.44" default-y="-15">
        <pitch>
          <step>C</step>
          <octave>5</octave>
        </pitch>
        <duration>5040</duration>
        <type>eighth</type>
        <stem>down</stem>
        <beam number="1">begin</beam>
        <lyric default-x="6.5" default-y="-67.88" name="1" number="1" relative-y="-30">
          <syllabic>single</syllabic>
          <text>with</text>
        </lyric>
      </note>
      <note default-x="122.59" default-y="-5">
        <pitch>
          <step>E</step>
          <octave>5</octave>
        </pitch>
        <duration>5040</duration>
        <type>eighth</type>
        <stem>down</stem>
        <beam number="1">end</beam>
        <lyric default-x="6.5" default-y="-67.88" name="1" number="1" relative-y="-30">
          <syllabic>single</syllabic>
          <text>the</text>
        </lyric>
      </note>
      <note color="#FF0000" default-x="164.75" default-y="-10">
        <pitch>
          <step>D</step>
          <octave>5</octave>
        </pitch>
        <duration>10080</duration>
        <type>quarter</type>
        <stem>down</stem>
        <notehead color="#FF0000" parentheses="no">normal</notehead>
        <lyric default-x="6.5" default-y="-67.88" name="1" number="1" relative-y="-30">
          <syllabic>single</syllabic>
          <text>rod</text>
        </lyric>
      </note>
      <note default-x="249.05" default-y="-15">
        <pitch>
          <step>C</step>
          <octave>5</octave>
        </pitch>
        <duration>5040</duration>
        <type>eighth</type>
        <stem>down</stem>
        <beam number="1">begin</beam>
        <lyric default-x="6.5" default-y="-67.88" name="1" number="1" relative-y="-30">
          <syllabic>single</syllabic>
          <text>of</text>
        </lyric>
      </note>
      <note default-x="291.2" default-y="-10">
        <pitch>
          <step>D</step>
          <octave>5</octave>
        </pitch>
        <duration>5040</duration>
        <type>eighth</type>
        <stem>down</stem>
        <beam number="1">end</beam>
        <lyric default-x="6.5" default-y="-67.88" name="1" number="1" relative-y="-30">
          <syllabic>single</syllabic>
          <text>his</text>
        </lyric>
      </note>
    </measure>
    <!--========================= Measure 0 ==========================-->
    <measure number="0">
      <note color="#FF0000" default-x="61.36" default-y="-20">
        <pitch>
          <step>B</step>
          <octave>4</octave>
        </pitch>
        <duration>20160</duration>
        <type>half</type>
        <stem>down</stem>
        <notehead color="#FF0000" parentheses="no">normal</notehead>
        <lyric default-x="8.97" default-y="-50.44" name="1" number="1" relative-y="-30">
          <syllabic>single</syllabic>
          <text>mouth,</text>
        </lyric>
      </note>
      <note>
        <rest />
        <duration>20160</duration>
        <type>half</type>
      </note>
    </measure>
    <!--========================= Measure 0 ==========================-->
    <measure number="0">
      <note>
        <rest />
        <duration>5040</duration>
        <type>eighth</type>
      </note>
      <note default-x="60.07" default-y="-20">
        <pitch>
          <step>B</step>
          <octave>4</octave>
        </pitch>
        <duration>5040</duration>
        <type>eighth</type>
        <stem>down</stem>
        <beam number="1">begin</beam>
        <lyric default-x="6.5" default-y="-50.44" name="1" number="1" relative-y="-30">
          <syllabic>single</syllabic>
          <text>and</text>
        </lyric>
      </note>
      <note default-x="107.14" default-y="-20">
        <pitch>
          <step>B</step>
          <octave>4</octave>
        </pitch>
        <duration>5040</duration>
        <type>eighth</type>
        <stem>down</stem>
        <beam number="1">continue</beam>
        <lyric default-x="6.5" default-y="-50.44" name="1" number="1" relative-y="-30">
          <syllabic>single</syllabic>
          <text>with</text>
        </lyric>
      </note>
      <note default-x="154.22" default-y="-15">
        <pitch>
          <step>C</step>
          <octave>5</octave>
        </pitch>
        <duration>5040</duration>
        <type>eighth</type>
        <stem>down</stem>
        <beam number="1">end</beam>
        <lyric default-x="6.5" default-y="-50.44" name="1" number="1" relative-y="-30">
          <syllabic>single</syllabic>
          <text>the</text>
        </lyric>
      </note>
      <note color="#FF0000" default-x="204.54" default-y="-10">
        <pitch>
          <step>D</step>
          <octave>5</octave>
        </pitch>
        <duration>10080</duration>
        <type>quarter</type>
        <stem>down</stem>
        <notehead color="#FF0000" parentheses="no">normal</notehead>
        <lyric default-x="6.5" default-y="-50.44" name="1" number="1" relative-y="-30">
          <syllabic>single</syllabic>
          <text>breath</text>
        </lyric>
      </note>
      <note default-x="279.86" default-y="-5">
        <pitch>
          <step>E</step>
          <octave>5</octave>
        </pitch>
        <duration>5040</duration>
        <type>eighth</type>
        <stem>down</stem>
        <beam number="1">begin</beam>
        <lyric default-x="6.5" default-y="-50.44" name="1" number="1" relative-y="-30">
          <syllabic>single</syllabic>
          <text>of</text>
        </lyric>
      </note>
      <note default-x="326.93" default-y="0">
        <pitch>
          <step>F</step>
          <octave>5</octave>
        </pitch>
        <duration>5040</duration>
        <type>eighth</type>
        <stem>down</stem>
        <beam number="1">end</beam>
        <lyric default-x="6.5" default-y="-50.44" name="1" number="1" relative-y="-30">
          <syllabic>single</syllabic>
          <text>his</text>
        </lyric>
      </note>
    </measure>
    <!--========================= Measure 0 ==========================-->
    <measure number="0">
      <note color="#FF0000" default-x="20.96" default-y="0">
        <pitch>
          <step>F</step>
          <octave>5</octave>
        </pitch>
        <duration>10080</duration>
        <type>quarter</type>
        <stem>down</stem>
        <notehead color="#FF0000" parentheses="no">normal</notehead>
        <lyric default-x="6.5" default-y="-50.44" name="1" number="1" relative-y="-30">
          <syllabic>single</syllabic>
          <text>lips</text>
        </lyric>
      </note>
      <note default-x="85.59" default-y="-10">
        <pitch>
          <step>D</step>
          <octave>5</octave>
        </pitch>
        <duration>5040</duration>
        <type>eighth</type>
        <stem>down</stem>
        <beam number="1">begin</beam>
        <lyric default-x="6.5" default-y="-50.44" name="1" number="1" relative-y="-30">
          <syllabic>single</syllabic>
          <text>shall</text>
        </lyric>
      </note>
      <note default-x="125.99" default-y="-20">
        <pitch>
          <step>B</step>
          <octave>4</octave>
        </pitch>
        <duration>5040</duration>
        <type>eighth</type>
        <stem>down</stem>
        <beam number="1">end</beam>
        <lyric default-x="6.5" default-y="-50.44" name="1" number="1" relative-y="-30">
          <syllabic>single</syllabic>
          <text>he</text>
        </lyric>
      </note>
      <note color="#FF0000" default-x="166.39" default-y="-5">
        <pitch>
          <step>E</step>
          <octave>5</octave>
        </pitch>
        <duration>15120</duration>
        <type>quarter</type>
        <dot />
        <stem>down</stem>
        <notehead color="#FF0000" parentheses="no">normal</notehead>
        <lyric default-x="6.5" default-y="-50.44" name="1" number="1" relative-y="-30">
          <syllabic>single</syllabic>
          <text>slay</text>
        </lyric>
      </note>
      <note default-x="287.58" default-y="-5">
        <pitch>
          <step>E</step>
          <octave>5</octave>
        </pitch>
        <duration>5040</duration>
        <type>eighth</type>
        <stem>down</stem>
        <lyric default-x="6.5" default-y="-50.44" name="1" number="1" relative-y="-30">
          <syllabic>single</syllabic>
          <text>the</text>
        </lyric>
      </note>
    </measure>
    <!--========================= Measure 0 ==========================-->
    <measure number="0">
      <note color="#FF0000" default-x="29.33" default-y="-5">
        <pitch>
          <step>E</step>
          <octave>5</octave>
        </pitch>
        <duration>5040</duration>
        <type>eighth</type>
        <stem>down</stem>
        <notehead color="#FF0000" parentheses="no">normal</notehead>
        <beam number="1">begin</beam>
        <notations>
          <articulations>
            <accent />
          </articulations>
        </notations>
        <lyric default-x="6.5" default-y="-50.44" name="1" number="1" relative-y="-30">
          <syllabic>begin</syllabic>
          <text>wick</text>
        </lyric>
      </note>
      <note default-x="68.44" default-y="-25">
        <pitch>
          <step>A</step>
          <octave>4</octave>
        </pitch>
        <duration>5040</duration>
        <type>eighth</type>
        <stem>down</stem>
        <beam number="1">end</beam>
        <lyric default-x="8.89" default-y="-50.44" name="1" number="1" relative-y="-30">
          <syllabic>end</syllabic>
          <text>ed.</text>
        </lyric>
      </note>
      <note>
        <rest />
        <duration>10080</duration>
        <type>quarter</type>
      </note>
      <note>
        <rest />
        <duration>20160</duration>
        <type>half</type>
      </note>
    </measure>
    <!--========================= Measure 0 ==========================-->
    <measure number="0">
      <note>
        <rest />
        <duration>20160</duration>
        <type>half</type>
      </note>
      <note>
        <rest />
        <duration>10080</duration>
        <type>quarter</type>
      </note>
      <note default-x="228.7" default-y="-25">
        <pitch>
          <step>A</step>
          <octave>4</octave>
        </pitch>
        <duration>10080</duration>
        <type>quarter</type>
        <stem>up</stem>
        <lyric default-x="6.5" default-y="-67.6" name="1" number="1" relative-y="-30">
          <syllabic>single</syllabic>
          <text>And</text>
        </lyric>
      </note>
    </measure>
    <!--========================= Measure 0 ==========================-->
    <measure number="0">
      <note color="#FF0000" default-x="24.37" default-y="-15">
        <pitch>
          <step>C</step>
          <octave>5</octave>
        </pitch>
        <duration>15120</duration>
        <type>quarter</type>
        <dot />
        <stem>down</stem>
        <notehead color="#FF0000" parentheses="no">normal</notehead>
        <lyric default-x="6.5" default-y="-67.6" name="1" number="1" relative-y="-30">
          <syllabic>begin</syllabic>
          <text>right</text>
        </lyric>
      </note>
      <note default-x="127.51" default-y="-5">
        <pitch>
          <step>E</step>
          <octave>5</octave>
        </pitch>
        <duration>5040</duration>
        <type>eighth</type>
        <stem>down</stem>
        <lyric default-x="6.5" default-y="-67.6" name="1" number="1" relative-y="-30">
          <syllabic>middle</syllabic>
          <text>eous</text>
        </lyric>
      </note>
      <note color="#FF0000" default-x="167.18" default-y="-5">
        <pitch>
          <step>E</step>
          <octave>5</octave>
        </pitch>
        <duration>20160</duration>
        <tie type="start" />
        <type>half</type>
        <stem>down</stem>
        <notehead color="#FF0000" parentheses="no">normal</notehead>
        <notations>
          <tied type="start" />
        </notations>
        <lyric default-y="-67.6" name="1" number="1" relative-y="-30">
          <syllabic>end</syllabic>
          <text>ness</text>
        </lyric>
      </note>
    </measure>
    <!--========================= Measure 0 ==========================-->
    <measure number="0">
      <note default-x="16.5" default-y="-5">
        <pitch>
          <step>E</step>
          <octave>5</octave>
        </pitch>
        <duration>10080</duration>
        <tie type="stop" />
        <type>quarter</type>
        <stem>down</stem>
        <notations>
          <tied type="stop" />
        </notations>
      </note>
      <note default-x="81.11" default-y="-5">
        <pitch>
          <step>E</step>
          <octave>5</octave>
        </pitch>
        <duration>10080</duration>
        <type>quarter</type>
        <stem>down</stem>
        <lyric default-x="6.5" default-y="-67.6" name="1" number="1" relative-y="-30">
          <syllabic>single</syllabic>
          <text>shall</text>
        </lyric>
      </note>
      <note color="#FF0000" default-x="145.72" default-y="-5">
        <pitch>
          <step>E</step>
          <octave>5</octave>
        </pitch>
        <duration>15120</duration>
        <type>quarter</type>
        <dot />
        <stem>down</stem>
        <notehead color="#FF0000" parentheses="no">normal</notehead>
        <lyric default-x="6.5" default-y="-67.6" name="1" number="1" relative-y="-30">
          <syllabic>single</syllabic>
          <text>be</text>
        </lyric>
      </note>
      <note default-x="250.71" default-y="-5">
        <pitch>
          <step>E</step>
          <octave>5</octave>
        </pitch>
        <duration>5040</duration>
        <type>eighth</type>
        <stem>down</stem>
        <lyric default-x="6.5" default-y="-67.6" name="1" number="1" relative-y="-30">
          <syllabic>single</syllabic>
          <text>the</text>
        </lyric>
      </note>
    </measure>
    <!--========================= Measure 0 ==========================-->
    <measure number="0">
      <note color="#FF0000" default-x="20.68" default-y="-10">
        <pitch>
          <step>D</step>
          <octave>5</octave>
        </pitch>
        <duration>10080</duration>
        <type>quarter</type>
        <stem>down</stem>
        <notehead color="#FF0000" parentheses="no">normal</notehead>
        <lyric default-x="6.5" default-y="-67.6" name="1" number="1" relative-y="-30">
          <syllabic>begin</syllabic>
          <text>gir</text>
        </lyric>
      </note>
      <note default-x="84.09" default-y="0">
        <pitch>
          <step>F</step>
          <octave>5</octave>
        </pitch>
        <duration>10080</duration>
        <type>quarter</type>
        <stem>down</stem>
        <lyric default-x="6.5" default-y="-67.6" name="1" number="1" relative-y="-30">
          <syllabic>end</syllabic>
          <text>dle</text>
        </lyric>
      </note>
      <note color="#FF0000" default-x="147.49" default-y="-5">
        <pitch>
          <step>E</step>
          <octave>5</octave>
        </pitch>
        <duration>10080</duration>
        <type>quarter</type>
        <stem>down</stem>
        <notehead color="#FF0000" parentheses="no">normal</notehead>
        <lyric default-x="6.5" default-y="-67.6" name="1" number="1" relative-y="-30">
          <syllabic>single</syllabic>
          <text>of</text>
        </lyric>
      </note>
      <note default-x="210.9" default-y="-10">
        <pitch>
          <step>D</step>
          <octave>5</octave>
        </pitch>
        <duration>10080</duration>
        <type>quarter</type>
        <stem>down</stem>
        <lyric default-x="6.5" default-y="-67.6" name="1" number="1" relative-y="-30">
          <syllabic>single</syllabic>
          <text>his</text>
        </lyric>
      </note>
    </measure>
    <!--========================= Measure 0 ==========================-->
    <measure number="0">
      <note color="#FF0000" default-x="62.32" default-y="-15">
        <pitch>
          <step>C</step>
          <octave>5</octave>
        </pitch>
        <duration>30240</duration>
        <type>half</type>
        <dot />
        <stem>down</stem>
        <notehead color="#FF0000" parentheses="no">normal</notehead>
        <lyric default-x="8.92" default-y="-46.88" name="1" number="1" relative-y="-30">
          <syllabic>single</syllabic>
          <text>loins,</text>
        </lyric>
      </note>
      <note default-x="228.5" default-y="-10">
        <pitch>
          <step>D</step>
          <octave>5</octave>
        </pitch>
        <duration>10080</duration>
        <type>quarter</type>
        <stem>down</stem>
        <lyric default-x="6.5" default-y="-46.88" name="1" number="1" relative-y="-30">
          <syllabic>single</syllabic>
          <text>and</text>
        </lyric>
      </note>
    </measure>
  </part>
</score-partwise>